<svg width="763" height="785" viewBox="0 0 763 785" fill="none" xmlns="http://www.w3.org/2000/svg">
<path fill-rule="evenodd" clip-rule="evenodd" d="M363.731 360C373.297 354.477 388.806 354.477 398.372 360L703.213 536H752.102V569H751.895C752.377 572.945 750.006 576.984 744.782 580L398.372 780C388.806 785.523 373.297 785.523 363.731 780L17.3206 580C12.097 576.984 9.72574 572.945 10.2072 569H10.1024V536H58.8899L363.731 360Z" fill="url(#paint0_linear_14_469)"/>
<rect width="440" height="440" rx="20" transform="matrix(-0.866025 0.5 0.866025 0.5 381.051 317)" fill="url(#paint1_linear_14_469)"/>
<g filter="url(#filter0_f_14_469)">
<rect width="117.92" height="355.562" rx="20" transform="matrix(-0.866025 0.5 0.866025 0.5 406.176 356)" fill="#2F80ED"/>
</g>
<rect x="-3.89711" y="2.25" width="408" height="241" rx="10.5" transform="matrix(-0.866025 -0.5 -2.20305e-08 1 749.83 206.551)" fill="#154DA2" stroke="#00DFFD" stroke-width="9"/>
<rect width="17" height="109" transform="matrix(-0.866025 -0.5 -2.20305e-08 1 730.255 301)" fill="#84E1FF"/>
<rect width="17" height="168" transform="matrix(-0.866025 -0.5 -2.20305e-08 1 674.83 210)" fill="#1FC3F7"/>
<rect width="17" height="126" transform="matrix(-0.866025 -0.5 -2.20305e-08 1 619.404 220)" fill="#84E1FF"/>
<rect width="17" height="182" transform="matrix(-0.866025 -0.5 -2.20305e-08 1 563.979 132)" fill="#1FC3F6"/>
<rect width="20" height="109" transform="matrix(-0.866025 -0.5 -2.20305e-08 1 508.553 173)" fill="#84E1FF"/>
<rect width="20" height="62" transform="matrix(-0.866025 -0.5 -2.20305e-08 1 450.529 186.5)" fill="#1FC3F6"/>
<path fill-rule="evenodd" clip-rule="evenodd" d="M440.493 326C430.928 320.477 415.418 320.477 405.852 326L372.943 345H331.102V378H331.767C332.735 380.551 334.936 382.977 338.372 384.96L582.66 526C592.226 531.523 607.735 531.523 617.301 526L684.782 487.04C689.142 484.523 691.514 481.293 691.9 478H692.102V450H655.268L520.102 371.962V345H473.402L440.493 326Z" fill="url(#paint2_linear_14_469)"/>
<rect width="117.92" height="322.08" rx="20" transform="matrix(-0.866025 0.5 0.866025 0.5 423.173 288)" fill="url(#paint3_linear_14_469)"/>
<path fill-rule="evenodd" clip-rule="evenodd" d="M229.17 452.872C238.797 447.457 254.407 447.457 264.035 452.872L337.172 494H345.102V504H344.89C344.928 507.576 342.521 511.158 337.67 513.886L264.035 555.294C254.407 560.708 238.797 560.708 229.17 555.294L155.535 513.886C150.684 511.158 148.277 507.576 148.315 504H148.302V494H156.033L229.17 452.872Z" fill="url(#paint4_linear_14_469)"/>
<rect width="124.479" height="124.479" rx="20" transform="matrix(-0.871633 0.490159 0.871633 0.490159 246.602 433.916)" fill="url(#paint5_linear_14_469)"/>
<g filter="url(#filter1_f_14_469)">
<rect width="33.3604" height="100.591" rx="16.6802" transform="matrix(-0.871633 0.490159 0.871633 0.490159 253.756 444.733)" fill="#2F80ED"/>
</g>
<rect width="117.972" height="69.3346" rx="15" transform="matrix(-0.871633 -0.490159 -2.26183e-08 1 353.679 403.825)" fill="#154DA2"/>
<path fill-rule="evenodd" clip-rule="evenodd" d="M273.135 441.815C265.105 437.299 252.087 437.299 244.057 441.815C243.948 441.876 243.841 441.938 243.735 442H238.102V449.052C237.632 452.315 239.617 455.67 244.057 458.167L294.401 486.478C302.431 490.993 315.449 490.993 323.479 486.478C327.178 484.398 329.173 481.722 329.464 479H329.502V471H324.885C324.447 470.699 323.979 470.407 323.479 470.126L286.102 449.107V442H273.464L273.135 441.815Z" fill="url(#paint6_linear_14_469)"/>
<rect width="33.3604" height="91.1186" rx="16.6802" transform="matrix(-0.871633 0.490159 0.871633 0.490159 258.596 425.874)" fill="url(#paint7_linear_14_469)"/>
<path fill-rule="evenodd" clip-rule="evenodd" d="M393.17 551.872C402.797 546.457 418.407 546.457 428.035 551.872L501.172 593H509.102V603H508.89C508.928 606.576 506.521 610.158 501.67 612.886L428.035 654.294C418.407 659.708 402.797 659.708 393.17 654.294L319.535 612.886C314.684 610.158 312.277 606.576 312.315 603H312.302V593H320.033L393.17 551.872Z" fill="url(#paint8_linear_14_469)"/>
<rect width="124.479" height="124.479" rx="20" transform="matrix(-0.871633 0.490159 0.871633 0.490159 410.602 532.916)" fill="url(#paint9_linear_14_469)"/>
<g filter="url(#filter2_f_14_469)">
<rect width="33.3604" height="100.591" rx="16.6802" transform="matrix(-0.871633 0.490159 0.871633 0.490159 417.756 543.733)" fill="#2F80ED"/>
</g>
<rect width="117.972" height="69.3346" rx="15" transform="matrix(-0.871633 -0.490159 -2.26183e-08 1 517.679 502.825)" fill="#154DA2"/>
<path fill-rule="evenodd" clip-rule="evenodd" d="M437.135 540.815C429.105 536.299 416.087 536.299 408.057 540.815C407.948 540.876 407.841 540.938 407.735 541H402.102V548.052C401.632 551.315 403.617 554.67 408.057 557.167L458.401 585.478C466.431 589.993 479.449 589.993 487.479 585.478C491.178 583.398 493.173 580.722 493.464 578H493.502V570H488.885C488.447 569.699 487.979 569.407 487.479 569.126L450.102 548.107V541H437.464L437.135 540.815Z" fill="url(#paint10_linear_14_469)"/>
<rect width="33.3604" height="91.1186" rx="16.6802" transform="matrix(-0.871633 0.490159 0.871633 0.490159 422.596 524.874)" fill="url(#paint11_linear_14_469)"/>
<ellipse rx="14.6948" ry="13.4605" transform="matrix(-0.866025 -0.5 -2.20305e-08 1 481.494 511.376)" stroke="#CC9F00" stroke-width="4"/>
<path d="M469.158 500.184C468.479 502.12 468.404 504.556 468.942 507.235C469.479 509.914 470.609 512.737 472.211 515.405C473.814 518.073 475.829 520.487 478.045 522.392C480.261 524.297 482.594 525.622 484.799 526.228C487.004 526.833 488.999 526.697 490.572 525.832C492.145 524.967 493.238 523.407 493.736 521.316C494.233 519.225 494.117 516.68 493.4 513.952C492.682 511.223 491.39 508.412 489.659 505.814" stroke="#FDC500" stroke-width="4"/>
<ellipse rx="14.5609" ry="13.5884" transform="matrix(-0.821575 -0.790595 -0.321278 0.743151 447.328 491.651)" stroke="#FDE400" stroke-width="4"/>
<path d="M435.404 480.259C434.366 482.661 434.376 485.96 435.432 489.564C436.488 493.168 438.521 496.841 441.167 499.924C443.812 503.007 446.897 505.298 449.867 506.385C452.836 507.473 455.497 507.286 457.371 505.858" stroke="#00DFFD" stroke-width="4"/>
<rect width="51.5108" height="2.31579" rx="1.15789" transform="matrix(-0.866025 -0.5 -2.20305e-08 1 491.757 534.236)" fill="#C1E4FE"/>
<rect width="43.6104" height="2.31579" rx="1.15789" transform="matrix(-0.866025 -0.5 -2.20305e-08 1 492.03 538.157)" fill="#C1E4FE"/>
<rect width="31.6017" height="2.31579" rx="1.15789" transform="matrix(-0.866025 -0.5 -2.20305e-08 1 492.03 541.92)" fill="#C1E4FE"/>
<path d="M336.695 426.062C338.096 434.125 343 461 343 461L265 415.967L265 413.894C265 413.894 273.407 383.926 276.91 371.854C280.413 359.782 279.946 400.552 286.952 408.328C293.958 416.104 296.06 390.787 303.533 396.759C311.006 402.732 306.102 416.69 314.042 420.238C321.982 423.785 320.114 379.802 321.982 397.876C323.85 415.951 330.623 441.21 330.623 441.21C330.623 441.21 335.293 417.998 336.695 426.062Z" fill="url(#paint12_linear_14_469)" stroke="url(#paint13_linear_14_469)" stroke-width="4"/>
<defs>
<filter id="filter0_f_14_469" x="298.201" y="345.858" width="421.756" height="257.025" filterUnits="userSpaceOnUse" color-interpolation-filters="sRGB">
<feFlood flood-opacity="0" result="BackgroundImageFix"/>
<feBlend mode="normal" in="SourceGraphic" in2="BackgroundImageFix" result="shape"/>
<feGaussianBlur stdDeviation="8" result="effect1_foregroundBlur_14_469"/>
</filter>
<filter id="filter1_f_14_469" x="217.195" y="433.522" width="131.723" height="88.0789" filterUnits="userSpaceOnUse" color-interpolation-filters="sRGB">
<feFlood flood-opacity="0" result="BackgroundImageFix"/>
<feBlend mode="normal" in="SourceGraphic" in2="BackgroundImageFix" result="shape"/>
<feGaussianBlur stdDeviation="8" result="effect1_foregroundBlur_14_469"/>
</filter>
<filter id="filter2_f_14_469" x="381.195" y="532.522" width="131.723" height="88.0789" filterUnits="userSpaceOnUse" color-interpolation-filters="sRGB">
<feFlood flood-opacity="0" result="BackgroundImageFix"/>
<feBlend mode="normal" in="SourceGraphic" in2="BackgroundImageFix" result="shape"/>
<feGaussianBlur stdDeviation="8" result="effect1_foregroundBlur_14_469"/>
</filter>
<linearGradient id="paint0_linear_14_469" x1="-60.8089" y1="376.713" x2="388.588" y2="892.501" gradientUnits="userSpaceOnUse">
<stop offset="0.381986" stop-color="#E0F8FF"/>
<stop offset="1" stop-color="#3EAEFF"/>
</linearGradient>
<linearGradient id="paint1_linear_14_469" x1="411.737" y1="-131.897" x2="265.287" y2="451.371" gradientUnits="userSpaceOnUse">
<stop stop-color="#E0F8FF"/>
<stop offset="1" stop-color="#3EAEFF"/>
</linearGradient>
<linearGradient id="paint2_linear_14_469" x1="296.602" y1="332" x2="515.142" y2="582.929" gradientUnits="userSpaceOnUse">
<stop offset="0.381986" stop-color="#E0F8FF"/>
<stop offset="1" stop-color="#3EAEFF"/>
</linearGradient>
<linearGradient id="paint3_linear_14_469" x1="122.818" y1="73.9764" x2="28.9358" y2="65.7351" gradientUnits="userSpaceOnUse">
<stop stop-color="#6DA2F2"/>
<stop offset="1" stop-color="#236FE2"/>
</linearGradient>
<linearGradient id="paint4_linear_14_469" x1="129.495" y1="454.194" x2="245.015" y2="590.438" gradientUnits="userSpaceOnUse">
<stop offset="0.381986" stop-color="#E0F8FF"/>
<stop offset="1" stop-color="#3EAEFF"/>
</linearGradient>
<linearGradient id="paint5_linear_14_469" x1="116.483" y1="-37.3144" x2="75.0515" y2="127.696" gradientUnits="userSpaceOnUse">
<stop stop-color="#E0F8FF"/>
<stop offset="1" stop-color="#3EAEFF"/>
</linearGradient>
<linearGradient id="paint6_linear_14_469" x1="229.293" y1="440.933" x2="283.054" y2="504.267" gradientUnits="userSpaceOnUse">
<stop offset="0.381986" stop-color="#E0F8FF"/>
<stop offset="1" stop-color="#3EAEFF"/>
</linearGradient>
<linearGradient id="paint7_linear_14_469" x1="34.7462" y1="20.9284" x2="8.18613" y2="18.5969" gradientUnits="userSpaceOnUse">
<stop stop-color="#6DA2F2"/>
<stop offset="1" stop-color="#236FE2"/>
</linearGradient>
<linearGradient id="paint8_linear_14_469" x1="293.495" y1="553.194" x2="409.015" y2="689.438" gradientUnits="userSpaceOnUse">
<stop offset="0.381986" stop-color="#E0F8FF"/>
<stop offset="1" stop-color="#3EAEFF"/>
</linearGradient>
<linearGradient id="paint9_linear_14_469" x1="116.483" y1="-37.3144" x2="75.0515" y2="127.696" gradientUnits="userSpaceOnUse">
<stop stop-color="#E0F8FF"/>
<stop offset="1" stop-color="#3EAEFF"/>
</linearGradient>
<linearGradient id="paint10_linear_14_469" x1="393.293" y1="539.933" x2="447.054" y2="603.267" gradientUnits="userSpaceOnUse">
<stop offset="0.381986" stop-color="#E0F8FF"/>
<stop offset="1" stop-color="#3EAEFF"/>
</linearGradient>
<linearGradient id="paint11_linear_14_469" x1="34.7462" y1="20.9284" x2="8.18613" y2="18.5969" gradientUnits="userSpaceOnUse">
<stop stop-color="#6DA2F2"/>
<stop offset="1" stop-color="#236FE2"/>
</linearGradient>
<linearGradient id="paint12_linear_14_469" x1="273.469" y1="390.221" x2="336.027" y2="424.284" gradientUnits="userSpaceOnUse">
<stop stop-color="#7ADFFF"/>
<stop offset="1" stop-color="#508EEC"/>
</linearGradient>
<linearGradient id="paint13_linear_14_469" x1="261.76" y1="371.754" x2="310.151" y2="357.993" gradientUnits="userSpaceOnUse">
<stop stop-color="#6DA2F2"/>
<stop offset="1" stop-color="#236FE2"/>
</linearGradient>
</defs>
</svg>
