<svg width="560" height="285" viewBox="0 0 560 285" fill="none" xmlns="http://www.w3.org/2000/svg">
<ellipse cx="280.092" cy="148.982" rx="279.364" ry="135.655" fill="url(#paint0_linear_224_325)"/>
<g filter="url(#filter0_f_224_325)">
<rect width="33.3604" height="100.591" rx="16.6802" transform="matrix(0.871633 0.490159 -0.871633 0.490159 402.699 112.927)" fill="#2F80ED"/>
</g>
<g filter="url(#filter1_f_224_325)">
<rect width="33.3604" height="100.591" rx="16.6802" transform="matrix(0.871633 0.490159 -0.871633 0.490159 431.906 140.619)" fill="#2F80ED"/>
</g>
<g filter="url(#filter2_f_224_325)">
<rect width="33.3604" height="100.591" rx="16.6802" transform="matrix(0.871633 0.490159 -0.871633 0.490159 465.906 173.619)" fill="#2F80ED"/>
</g>
<rect width="117.972" height="69.3346" rx="15" transform="matrix(0.871633 -0.490159 2.26183e-08 1 302.777 72.019)" fill="#154DA2"/>
<path fill-rule="evenodd" clip-rule="evenodd" d="M383.321 110.009C391.35 105.493 404.369 105.493 412.399 110.009C412.507 110.07 412.615 110.132 412.721 110.194H418.353V117.246C418.823 120.509 416.839 123.864 412.399 126.361L362.055 154.672C354.025 159.187 341.006 159.187 332.977 154.672C329.278 152.591 327.283 149.916 326.992 147.194H326.953V139.194H331.571C332.008 138.893 332.477 138.601 332.977 138.32L370.353 117.301V110.194H382.991L383.321 110.009Z" fill="url(#paint1_linear_224_325)"/>
<rect width="33.3604" height="91.1186" rx="16.6802" transform="matrix(0.871633 0.490159 -0.871633 0.490159 397.86 94.0674)" fill="url(#paint2_linear_224_325)"/>
<path fill-rule="evenodd" clip-rule="evenodd" d="M412.387 144.539C419.951 140.192 432.215 140.192 439.78 144.539C439.882 144.598 439.983 144.657 440.083 144.717H445.389V151.505C445.832 154.646 443.962 157.875 439.78 160.279L392.353 187.53C384.789 191.876 372.525 191.876 364.961 187.53C361.476 185.528 359.597 182.953 359.323 180.332H359.287V172.632H363.636C364.049 172.342 364.49 172.061 364.961 171.79L400.171 151.558V144.717H412.077L412.387 144.539Z" fill="url(#paint3_linear_224_325)"/>
<rect width="31.5928" height="86.2906" rx="15.7964" transform="matrix(0.867055 0.498213 -0.867055 0.498213 426.083 129.194)" fill="url(#paint4_linear_224_325)"/>
<path fill-rule="evenodd" clip-rule="evenodd" d="M448.73 176.873C456.294 172.526 468.558 172.526 476.122 176.873C476.225 176.932 476.326 176.991 476.426 177.051H481.732V183.838C482.175 186.98 480.305 190.209 476.122 192.613L428.696 219.864C421.132 224.21 408.868 224.21 401.304 219.864C397.819 217.862 395.94 215.286 395.665 212.666H395.629V204.965H399.979C400.391 204.675 400.833 204.394 401.304 204.124L436.514 183.892V177.051H448.419L448.73 176.873Z" fill="url(#paint5_linear_224_325)"/>
<rect width="31.5928" height="86.2906" rx="15.7964" transform="matrix(0.867055 0.498213 -0.867055 0.498213 462.426 161.528)" fill="url(#paint6_linear_224_325)"/>
<path fill-rule="evenodd" clip-rule="evenodd" d="M245.192 172.247C217.186 155.325 171.697 155.374 143.691 172.296C140.152 174.434 137.06 176.741 134.413 179.173H122.57V205.459H122.759C123.712 215.714 130.657 225.799 143.609 233.624C171.615 250.546 217.104 250.497 245.11 233.575C260.468 224.295 267.429 211.838 265.965 199.689V179.173H254.516C251.862 176.722 248.754 174.399 245.192 172.247Z" fill="url(#paint7_linear_224_325)"/>
<rect width="55.7414" height="55.7413" transform="matrix(0.855898 0.517145 -0.855898 0.517145 193.856 105.383)" fill="url(#paint8_linear_224_325)"/>
<g filter="url(#filter3_f_224_325)">
<rect width="89.5197" height="89.5197" rx="44.7599" transform="matrix(0.855898 0.517145 -0.855898 0.517145 196.775 162.708)" fill="url(#paint9_linear_224_325)"/>
</g>
<rect width="118.494" height="118.686" rx="59.2472" transform="matrix(0.855898 0.517145 -0.855898 0.517145 194.482 113.961)" fill="url(#paint10_linear_224_325)"/>
<rect width="129.5" height="132.667" rx="60.8" transform="matrix(0.855898 0.517145 -0.855898 0.517145 196.775 81.9958)" fill="url(#paint11_linear_224_325)"/>
<rect width="112.323" height="112.027" rx="56.0133" transform="matrix(0.855898 0.517145 -0.855898 0.517145 194.065 83.5964)" fill="url(#paint12_linear_224_325)"/>
<rect width="92.9023" height="92.9023" rx="46.4511" transform="matrix(0.855898 0.517145 -0.855898 0.517145 193.891 86.1655)" fill="url(#paint13_linear_224_325)"/>
<path fill-rule="evenodd" clip-rule="evenodd" d="M226.903 14.1938H160.903V131.01C159.275 137.234 162.43 143.826 170.368 148.623C183.543 156.583 204.903 156.583 218.077 148.623C226.817 143.342 229.759 135.885 226.903 129.139V14.1938Z" fill="url(#paint14_linear_224_325)" fill-opacity="0.6"/>
<rect width="55.592" height="56.0447" rx="27.796" transform="matrix(0.855898 0.517145 -0.855898 0.517145 194.676 105.505)" fill="url(#paint15_linear_224_325)"/>
<ellipse cx="195.358" cy="52.7972" rx="25" ry="24.7525" fill="url(#paint16_radial_224_325)"/>
<g filter="url(#filter4_dd_224_325)">
<ellipse cx="195.358" cy="52.7972" rx="25" ry="24.7525" fill="url(#paint17_radial_224_325)"/>
</g>
<g filter="url(#filter5_f_224_325)">
<ellipse cx="194.693" cy="33.9676" rx="13.4919" ry="6.41806" fill="white"/>
</g>
<g style="mix-blend-mode:color-dodge" opacity="0.67">
<path d="M233.579 15.6592C240.44 22.9465 229.407 44.4786 208.936 63.7525C188.465 83.0265 166.308 92.7436 159.447 85.4563C154.119 79.7981 159.58 65.552 171.87 50.4431C162.287 62.9401 159.603 75.8372 164.179 80.6978C170.36 87.2619 189.778 79.0172 207.552 62.2828C225.326 45.5484 234.725 26.6612 228.544 20.0971C223.515 14.7553 209.648 17.9767 194.893 28.5194L193.919 29.2353L194.222 28.9866L193.887 29.2203L194.829 28.4892C211.701 15.6437 227.948 9.67831 233.579 15.6592Z" fill="white"/>
<path d="M159.447 16.6592C152.585 23.9465 163.619 45.4786 184.09 64.7525C204.561 84.0265 226.718 93.7436 233.579 86.4563C238.906 80.7981 233.446 66.552 221.155 51.4431C230.738 63.9401 233.423 76.8372 228.846 81.6978C222.666 88.2619 203.247 80.0172 185.473 63.2828C167.7 46.5484 158.301 27.6612 164.481 21.0971C169.511 15.7553 183.377 18.9767 198.132 29.5194L199.107 30.2353L198.804 29.9866L199.139 30.2203L198.196 29.4892C181.324 16.6437 165.078 10.6783 159.447 16.6592Z" fill="white"/>
<path d="M143.147 55.591C143.448 65.5954 166.475 73.0193 194.579 72.1728C222.683 71.3262 245.222 62.5298 244.92 52.5254C244.686 44.7575 230.752 38.5453 211.377 36.5523C226.99 38.6128 238.008 45.8343 238.209 52.5072C238.48 61.5189 218.919 69.42 194.518 70.155C170.117 70.8901 150.116 64.1805 149.845 55.1689C149.624 47.8355 161.707 40.3081 179.595 37.3295L180.791 37.1466L180.4 37.1853L180.803 37.1133L179.619 37.2629C158.606 40.11 142.899 47.3801 143.147 55.591Z" fill="white"/>
</g>
<g filter="url(#filter6_f_224_325)">
<circle r="7.5" transform="matrix(-0.916311 -0.400468 -0.400468 0.916311 172.406 85.0495)" fill="url(#paint18_linear_224_325)"/>
</g>
<ellipse rx="6.25" ry="6.25" transform="matrix(-0.916311 -0.400468 -0.400468 0.916311 172.255 85.3944)" fill="url(#paint19_radial_224_325)"/>
<g filter="url(#filter7_f_224_325)">
<ellipse rx="3.66066" ry="2.4256" transform="matrix(-0.916311 -0.400468 -0.400468 0.916311 170.882 88.5367)" fill="url(#paint20_linear_224_325)"/>
</g>
<g filter="url(#filter8_f_224_325)">
<circle r="7.5" transform="matrix(-0.916311 -0.400468 -0.400468 0.916311 161.278 31.4181)" fill="url(#paint21_linear_224_325)"/>
</g>
<ellipse rx="6.25" ry="6.25" transform="matrix(-0.916311 -0.400468 -0.400468 0.916311 161.128 31.7631)" fill="url(#paint22_radial_224_325)"/>
<g filter="url(#filter9_f_224_325)">
<ellipse rx="3.66066" ry="2.4256" transform="matrix(-0.916311 -0.400468 -0.400468 0.916311 159.754 34.9053)" fill="url(#paint23_linear_224_325)"/>
</g>
<g filter="url(#filter10_f_224_325)">
<circle r="7.5" transform="matrix(-0.916311 -0.400468 -0.400468 0.916311 238.357 45.0817)" fill="url(#paint24_linear_224_325)"/>
</g>
<ellipse rx="6.25" ry="6.25" transform="matrix(-0.916311 -0.400468 -0.400468 0.916311 238.207 45.4267)" fill="url(#paint25_radial_224_325)"/>
<g filter="url(#filter11_f_224_325)">
<ellipse rx="3.66066" ry="2.4256" transform="matrix(-0.916311 -0.400468 -0.400468 0.916311 236.833 48.5689)" fill="url(#paint26_linear_224_325)"/>
</g>
<g style="mix-blend-mode:overlay">
<path d="M191.374 41.5085L195.233 49.9382L199.093 41.5085H203.244L197.163 53.2644V59.9929H193.304V53.2644L187.21 41.5085H191.374Z" fill="#1FC3F6"/>
<path d="M191.374 41.5085L192.283 41.0923L192.016 40.5085H191.374V41.5085ZM195.233 49.9382L194.324 50.3545L195.233 52.3405L196.143 50.3545L195.233 49.9382ZM199.093 41.5085V40.5085H198.451L198.184 41.0923L199.093 41.5085ZM203.244 41.5085L204.132 41.968L204.887 40.5085H203.244V41.5085ZM197.163 53.2644L196.275 52.805L196.163 53.0211V53.2644H197.163ZM197.163 59.9929V60.9929H198.163V59.9929H197.163ZM193.304 59.9929H192.304V60.9929H193.304V59.9929ZM193.304 53.2644H194.304V53.0206L194.192 52.8042L193.304 53.2644ZM187.21 41.5085V40.5085H185.565L186.322 41.9688L187.21 41.5085ZM190.465 41.9248L194.324 50.3545L196.143 49.522L192.283 41.0923L190.465 41.9248ZM196.143 50.3545L200.002 41.9248L198.184 41.0923L194.324 49.522L196.143 50.3545ZM199.093 42.5085H203.244V40.5085H199.093V42.5085ZM202.356 41.0491L196.275 52.805L198.051 53.7239L204.132 41.968L202.356 41.0491ZM196.163 53.2644V59.9929H198.163V53.2644H196.163ZM197.163 58.9929H193.304V60.9929H197.163V58.9929ZM194.304 59.9929V53.2644H192.304V59.9929H194.304ZM194.192 52.8042L188.098 41.0483L186.322 41.9688L192.416 53.7246L194.192 52.8042ZM187.21 42.5085H191.374V40.5085H187.21V42.5085Z" fill="black" fill-opacity="0.38"/>
</g>
<path fill-rule="evenodd" clip-rule="evenodd" d="M388.108 42.2346L379.258 66.0359L378.816 67.2248L377.57 66.9864L363.656 64.3237L354.474 86.3821L353.811 87.9758L352.325 87.0964L336.259 77.586L321.974 110.123L319.227 108.917L334.193 74.8297L334.874 73.2795L336.331 74.1419L352.368 83.6355L361.355 62.0447L361.824 60.9186L363.022 61.1479L376.888 63.8015L385.296 41.189L388.108 42.2346Z" fill="url(#paint27_linear_224_325)"/>
<path fill-rule="evenodd" clip-rule="evenodd" d="M317.911 68.5875L320.689 73.2007L318.227 74.6224L318.227 122.341L389.608 81.1293L389.608 78.5658L395.629 77.958L389.608 84.3027L389.608 82.1293L318.227 123.341L318.227 123.341L317.361 123.841L317.361 123.841L317.361 122.841L317.361 75.1224L315.133 76.4085L317.911 68.5875Z" fill="url(#paint28_linear_224_325)"/>
<defs>
<filter id="filter0_f_224_325" x="307.538" y="101.716" width="131.723" height="88.0789" filterUnits="userSpaceOnUse" color-interpolation-filters="sRGB">
<feFlood flood-opacity="0" result="BackgroundImageFix"/>
<feBlend mode="normal" in="SourceGraphic" in2="BackgroundImageFix" result="shape"/>
<feGaussianBlur stdDeviation="8" result="effect1_foregroundBlur_224_325"/>
</filter>
<filter id="filter1_f_224_325" x="336.744" y="129.409" width="131.723" height="88.0789" filterUnits="userSpaceOnUse" color-interpolation-filters="sRGB">
<feFlood flood-opacity="0" result="BackgroundImageFix"/>
<feBlend mode="normal" in="SourceGraphic" in2="BackgroundImageFix" result="shape"/>
<feGaussianBlur stdDeviation="8" result="effect1_foregroundBlur_224_325"/>
</filter>
<filter id="filter2_f_224_325" x="370.744" y="162.409" width="131.723" height="88.0789" filterUnits="userSpaceOnUse" color-interpolation-filters="sRGB">
<feFlood flood-opacity="0" result="BackgroundImageFix"/>
<feBlend mode="normal" in="SourceGraphic" in2="BackgroundImageFix" result="shape"/>
<feGaussianBlur stdDeviation="8" result="effect1_foregroundBlur_224_325"/>
</filter>
<filter id="filter3_f_224_325" x="127.597" y="161.267" width="138.357" height="95.4705" filterUnits="userSpaceOnUse" color-interpolation-filters="sRGB">
<feFlood flood-opacity="0" result="BackgroundImageFix"/>
<feBlend mode="normal" in="SourceGraphic" in2="BackgroundImageFix" result="shape"/>
<feGaussianBlur stdDeviation="7.5" result="effect1_foregroundBlur_224_325"/>
</filter>
<filter id="filter4_dd_224_325" x="148.358" y="6.04468" width="94" height="93.5049" filterUnits="userSpaceOnUse" color-interpolation-filters="sRGB">
<feFlood flood-opacity="0" result="BackgroundImageFix"/>
<feColorMatrix in="SourceAlpha" type="matrix" values="0 0 0 0 0 0 0 0 0 0 0 0 0 0 0 0 0 0 127 0" result="hardAlpha"/>
<feMorphology radius="5" operator="dilate" in="SourceAlpha" result="effect1_dropShadow_224_325"/>
<feOffset/>
<feGaussianBlur stdDeviation="8.5"/>
<feComposite in2="hardAlpha" operator="out"/>
<feColorMatrix type="matrix" values="0 0 0 0 0.916667 0 0 0 0 0.827292 0 0 0 0 0.0229167 0 0 0 0.9 0"/>
<feBlend mode="normal" in2="BackgroundImageFix" result="effect1_dropShadow_224_325"/>
<feColorMatrix in="SourceAlpha" type="matrix" values="0 0 0 0 0 0 0 0 0 0 0 0 0 0 0 0 0 0 127 0" result="hardAlpha"/>
<feMorphology radius="8" operator="erode" in="SourceAlpha" result="effect2_dropShadow_224_325"/>
<feOffset/>
<feGaussianBlur stdDeviation="12"/>
<feComposite in2="hardAlpha" operator="out"/>
<feColorMatrix type="matrix" values="0 0 0 0 1 0 0 0 0 0 0 0 0 0 0 0 0 0 1 0"/>
<feBlend mode="normal" in2="effect1_dropShadow_224_325" result="effect2_dropShadow_224_325"/>
<feBlend mode="normal" in="SourceGraphic" in2="effect2_dropShadow_224_325" result="shape"/>
</filter>
<filter id="filter5_f_224_325" x="161.202" y="7.54956" width="66.9837" height="52.8362" filterUnits="userSpaceOnUse" color-interpolation-filters="sRGB">
<feFlood flood-opacity="0" result="BackgroundImageFix"/>
<feBlend mode="normal" in="SourceGraphic" in2="BackgroundImageFix" result="shape"/>
<feGaussianBlur stdDeviation="10" result="effect1_foregroundBlur_224_325"/>
</filter>
<filter id="filter6_f_224_325" x="153.904" y="66.5476" width="37.0038" height="37.0037" filterUnits="userSpaceOnUse" color-interpolation-filters="sRGB">
<feFlood flood-opacity="0" result="BackgroundImageFix"/>
<feBlend mode="normal" in="SourceGraphic" in2="BackgroundImageFix" result="shape"/>
<feGaussianBlur stdDeviation="5.5" result="effect1_foregroundBlur_224_325"/>
</filter>
<filter id="filter7_f_224_325" x="152.389" y="70.8738" width="36.9861" height="35.3257" filterUnits="userSpaceOnUse" color-interpolation-filters="sRGB">
<feFlood flood-opacity="0" result="BackgroundImageFix"/>
<feBlend mode="normal" in="SourceGraphic" in2="BackgroundImageFix" result="shape"/>
<feGaussianBlur stdDeviation="7.5" result="effect1_foregroundBlur_224_325"/>
</filter>
<filter id="filter8_f_224_325" x="142.776" y="12.9163" width="37.0038" height="37.0037" filterUnits="userSpaceOnUse" color-interpolation-filters="sRGB">
<feFlood flood-opacity="0" result="BackgroundImageFix"/>
<feBlend mode="normal" in="SourceGraphic" in2="BackgroundImageFix" result="shape"/>
<feGaussianBlur stdDeviation="5.5" result="effect1_foregroundBlur_224_325"/>
</filter>
<filter id="filter9_f_224_325" x="141.261" y="17.2424" width="36.9861" height="35.3257" filterUnits="userSpaceOnUse" color-interpolation-filters="sRGB">
<feFlood flood-opacity="0" result="BackgroundImageFix"/>
<feBlend mode="normal" in="SourceGraphic" in2="BackgroundImageFix" result="shape"/>
<feGaussianBlur stdDeviation="7.5" result="effect1_foregroundBlur_224_325"/>
</filter>
<filter id="filter10_f_224_325" x="219.855" y="26.5798" width="37.0038" height="37.0037" filterUnits="userSpaceOnUse" color-interpolation-filters="sRGB">
<feFlood flood-opacity="0" result="BackgroundImageFix"/>
<feBlend mode="normal" in="SourceGraphic" in2="BackgroundImageFix" result="shape"/>
<feGaussianBlur stdDeviation="5.5" result="effect1_foregroundBlur_224_325"/>
</filter>
<filter id="filter11_f_224_325" x="218.34" y="30.906" width="36.9861" height="35.3257" filterUnits="userSpaceOnUse" color-interpolation-filters="sRGB">
<feFlood flood-opacity="0" result="BackgroundImageFix"/>
<feBlend mode="normal" in="SourceGraphic" in2="BackgroundImageFix" result="shape"/>
<feGaussianBlur stdDeviation="7.5" result="effect1_foregroundBlur_224_325"/>
</filter>
<linearGradient id="paint0_linear_224_325" x1="498.794" y1="133.424" x2="174.125" y2="328.615" gradientUnits="userSpaceOnUse">
<stop stop-color="#7ADFFF"/>
<stop offset="1" stop-color="#508EEC"/>
</linearGradient>
<linearGradient id="paint1_linear_224_325" x1="427.162" y1="109.127" x2="373.401" y2="172.461" gradientUnits="userSpaceOnUse">
<stop offset="0.381986" stop-color="#E0F8FF"/>
<stop offset="1" stop-color="#3EAEFF"/>
</linearGradient>
<linearGradient id="paint2_linear_224_325" x1="34.7462" y1="20.9284" x2="8.18613" y2="18.5969" gradientUnits="userSpaceOnUse">
<stop stop-color="#6DA2F2"/>
<stop offset="1" stop-color="#236FE2"/>
</linearGradient>
<linearGradient id="paint3_linear_224_325" x1="453.687" y1="143.69" x2="401.769" y2="203.549" gradientUnits="userSpaceOnUse">
<stop offset="0.381986" stop-color="#E0F8FF"/>
<stop offset="1" stop-color="#3EAEFF"/>
</linearGradient>
<linearGradient id="paint4_linear_224_325" x1="32.9051" y1="19.8195" x2="7.75238" y2="17.6115" gradientUnits="userSpaceOnUse">
<stop stop-color="#6DA2F2"/>
<stop offset="1" stop-color="#236FE2"/>
</linearGradient>
<linearGradient id="paint5_linear_224_325" x1="490.03" y1="176.024" x2="438.111" y2="235.883" gradientUnits="userSpaceOnUse">
<stop offset="0.381986" stop-color="#E0F8FF"/>
<stop offset="1" stop-color="#3EAEFF"/>
</linearGradient>
<linearGradient id="paint6_linear_224_325" x1="32.9051" y1="19.8195" x2="7.75238" y2="17.6115" gradientUnits="userSpaceOnUse">
<stop stop-color="#6DA2F2"/>
<stop offset="1" stop-color="#236FE2"/>
</linearGradient>
<linearGradient id="paint7_linear_224_325" x1="228.16" y1="202.936" x2="164.187" y2="249.328" gradientUnits="userSpaceOnUse">
<stop stop-color="#00FFFF" stop-opacity="0.55"/>
<stop offset="1" stop-color="#1688DB"/>
</linearGradient>
<linearGradient id="paint8_linear_224_325" x1="49.6894" y1="24.6743" x2="9.05472" y2="36.5369" gradientUnits="userSpaceOnUse">
<stop stop-color="#7ADFFF"/>
<stop offset="1" stop-color="#508EEC"/>
</linearGradient>
<linearGradient id="paint9_linear_224_325" x1="93.2383" y1="20.5612" x2="25.3219" y2="4.27717" gradientUnits="userSpaceOnUse">
<stop stop-color="#6DA2F2"/>
<stop offset="1" stop-color="#236FE2"/>
</linearGradient>
<linearGradient id="paint10_linear_224_325" x1="-17.7199" y1="82.8826" x2="56.8159" y2="-2.03991" gradientUnits="userSpaceOnUse">
<stop stop-color="#0053CF"/>
<stop offset="1" stop-color="#00FFFF" stop-opacity="0.71"/>
</linearGradient>
<linearGradient id="paint11_linear_224_325" x1="17.3687" y1="142.374" x2="96.8248" y2="25.288" gradientUnits="userSpaceOnUse">
<stop offset="0.126352" stop-color="#0053CF"/>
<stop offset="1" stop-color="#00FFFF"/>
</linearGradient>
<linearGradient id="paint12_linear_224_325" x1="15.0648" y1="120.224" x2="81.4779" y2="19.6997" gradientUnits="userSpaceOnUse">
<stop stop-color="#0053CF"/>
<stop offset="1" stop-color="#00FFFF"/>
</linearGradient>
<linearGradient id="paint13_linear_224_325" x1="82.8157" y1="41.1238" x2="15.0912" y2="60.8949" gradientUnits="userSpaceOnUse">
<stop stop-color="#7ADFFF"/>
<stop offset="1" stop-color="#508EEC"/>
</linearGradient>
<linearGradient id="paint14_linear_224_325" x1="194.223" y1="33.7439" x2="194.342" y2="163.036" gradientUnits="userSpaceOnUse">
<stop stop-color="#00DFFD" stop-opacity="0"/>
<stop offset="1" stop-color="#00FFFF"/>
</linearGradient>
<linearGradient id="paint15_linear_224_325" x1="10.2484" y1="-121.885" x2="29.7998" y2="55.8243" gradientUnits="userSpaceOnUse">
<stop offset="0.520837" stop-color="#0053CF"/>
<stop offset="1" stop-color="#00FFFF" stop-opacity="0.52"/>
</linearGradient>
<radialGradient id="paint16_radial_224_325" cx="0" cy="0" r="1" gradientUnits="userSpaceOnUse" gradientTransform="translate(204.997 28.7551) rotate(112.792) scale(49.2611 67.1996)">
<stop stop-color="#FFCD1A"/>
<stop offset="0.501371" stop-color="#FDE400"/>
<stop offset="1" stop-color="#CC9F00"/>
</radialGradient>
<radialGradient id="paint17_radial_224_325" cx="0" cy="0" r="1" gradientUnits="userSpaceOnUse" gradientTransform="translate(195.358 32.2618) rotate(104.074) scale(53.0274 72.4675)">
<stop stop-color="#FFCD1A"/>
<stop offset="0.501371" stop-color="#FDE400"/>
<stop offset="1" stop-color="#CC9F00"/>
</radialGradient>
<linearGradient id="paint18_linear_224_325" x1="14.0365" y1="-4.49647" x2="9.04388" y2="15.3876" gradientUnits="userSpaceOnUse">
<stop stop-color="#E0F8FF"/>
<stop offset="1" stop-color="#3EAEFF"/>
</linearGradient>
<radialGradient id="paint19_radial_224_325" cx="0" cy="0" r="1" gradientUnits="userSpaceOnUse" gradientTransform="translate(8.65989 0.179393) rotate(112.589) scale(12.42 16.8248)">
<stop stop-color="#00DFFD"/>
<stop offset="0.620293" stop-color="#00FFFF" stop-opacity="0.52"/>
<stop offset="1" stop-color="#1688DB"/>
</radialGradient>
<linearGradient id="paint20_linear_224_325" x1="8.021" y1="0.236222" x2="2.88226" y2="5.3739" gradientUnits="userSpaceOnUse">
<stop offset="0.381986" stop-color="#E0F8FF"/>
<stop offset="1" stop-color="#3EAEFF"/>
</linearGradient>
<linearGradient id="paint21_linear_224_325" x1="14.0365" y1="-4.49647" x2="9.04388" y2="15.3876" gradientUnits="userSpaceOnUse">
<stop stop-color="#E0F8FF"/>
<stop offset="1" stop-color="#3EAEFF"/>
</linearGradient>
<radialGradient id="paint22_radial_224_325" cx="0" cy="0" r="1" gradientUnits="userSpaceOnUse" gradientTransform="translate(8.65989 0.179393) rotate(112.589) scale(12.42 16.8248)">
<stop stop-color="#00DFFD"/>
<stop offset="0.620293" stop-color="#00FFFF" stop-opacity="0.52"/>
<stop offset="1" stop-color="#1688DB"/>
</radialGradient>
<linearGradient id="paint23_linear_224_325" x1="8.021" y1="0.236222" x2="2.88226" y2="5.3739" gradientUnits="userSpaceOnUse">
<stop offset="0.381986" stop-color="#E0F8FF"/>
<stop offset="1" stop-color="#3EAEFF"/>
</linearGradient>
<linearGradient id="paint24_linear_224_325" x1="14.0365" y1="-4.49647" x2="9.04388" y2="15.3876" gradientUnits="userSpaceOnUse">
<stop stop-color="#E0F8FF"/>
<stop offset="1" stop-color="#3EAEFF"/>
</linearGradient>
<radialGradient id="paint25_radial_224_325" cx="0" cy="0" r="1" gradientUnits="userSpaceOnUse" gradientTransform="translate(8.65989 0.179393) rotate(112.589) scale(12.42 16.8248)">
<stop stop-color="#00DFFD"/>
<stop offset="0.620293" stop-color="#00FFFF" stop-opacity="0.52"/>
<stop offset="1" stop-color="#1688DB"/>
</radialGradient>
<linearGradient id="paint26_linear_224_325" x1="8.021" y1="0.236222" x2="2.88226" y2="5.3739" gradientUnits="userSpaceOnUse">
<stop offset="0.381986" stop-color="#E0F8FF"/>
<stop offset="1" stop-color="#3EAEFF"/>
</linearGradient>
<linearGradient id="paint27_linear_224_325" x1="393.818" y1="51.6109" x2="332.504" y2="43.7118" gradientUnits="userSpaceOnUse">
<stop stop-color="#6DA2F2"/>
<stop offset="1" stop-color="#236FE2"/>
</linearGradient>
<linearGradient id="paint28_linear_224_325" x1="386.89" y1="54.0425" x2="322.206" y2="88.9525" gradientUnits="userSpaceOnUse">
<stop stop-color="#7ADFFF"/>
<stop offset="1" stop-color="#508EEC"/>
</linearGradient>
</defs>
</svg>
