<svg width="323" height="171" viewBox="0 0 323 171" fill="none" xmlns="http://www.w3.org/2000/svg">
<path fill-rule="evenodd" clip-rule="evenodd" d="M207.996 30.4593C212.779 27.6978 220.533 27.6978 225.316 30.4593L310.187 79.4593H322.53V90.4593H322.312C321.952 91.9227 320.797 93.3336 318.847 94.4593L191.541 167.959C186.758 170.721 179.004 170.721 174.221 167.959L80.69 113.959C78.9633 112.962 77.86 111.742 77.38 110.459H77.0297V99.4593H88.4842L207.996 30.4593Z" fill="#00FFFF" fill-opacity="0.52"/>
<path d="M207.996 21.4593C212.779 18.6978 220.533 18.6978 225.316 21.4593L318.847 75.4593C323.63 78.2207 323.63 82.6978 318.847 85.4593L191.541 158.959C186.758 161.721 179.004 161.721 174.221 158.959L80.69 104.959C75.907 102.198 75.907 97.7207 80.69 94.9593L207.996 21.4593Z" fill="#154DA2"/>
<rect width="47" height="11" rx="3" transform="matrix(0.866025 0.5 -0.866025 0.5 119.03 96.3884)" fill="#00FFFF" fill-opacity="0.52"/>
<rect width="115" height="5" rx="2.5" transform="matrix(0.866025 0.5 -0.866025 0.5 208.656 29.3884)" fill="#00DFFD"/>
<rect width="115" height="5" rx="2.5" transform="matrix(0.866025 0.5 -0.866025 0.5 196.532 36.3884)" fill="#00DFFD"/>
<rect width="115" height="5" rx="2.5" transform="matrix(0.866025 0.5 -0.866025 0.5 142.838 67.3887)" fill="#00DFFD"/>
<rect width="51" height="5" rx="2.5" transform="matrix(0.866025 0.5 -0.866025 0.5 183.541 43.8884)" fill="#00DFFD"/>
<rect width="51" height="5" rx="2.5" transform="matrix(0.866025 0.5 -0.866025 0.5 170.551 51.3887)" fill="#00DFFD"/>
<rect width="51" height="5" rx="2.5" transform="matrix(0.866025 0.5 -0.866025 0.5 157.56 58.8887)" fill="#00DFFD"/>
<rect width="42" height="8" rx="3" transform="matrix(0.866025 0.5 -0.866025 0.5 119.36 98.3884)" fill="black" fill-opacity="0.68"/>
<rect width="51" height="5" rx="2.5" transform="matrix(0.866025 0.5 -0.866025 0.5 219.048 79.3887)" fill="#00DFFD"/>
<rect width="27" height="5" rx="2.5" transform="matrix(0.866025 0.5 -0.866025 0.5 232.039 71.8887)" fill="#00DFFD"/>
<rect width="27" height="5" rx="2.5" transform="matrix(0.866025 0.5 -0.866025 0.5 259.751 87.8887)" fill="#00DFFD"/>
<path d="M201.619 135.326L200.266 134.544L202.741 133.116C206.155 131.144 205.896 127.794 202.161 125.638C198.426 123.482 192.624 123.332 189.209 125.303L186.735 126.732L185.382 125.951C183.893 125.091 181.562 125.031 180.201 125.817L167.829 132.96C166.468 133.745 166.573 135.091 168.061 135.951L184.299 145.326C185.787 146.185 188.119 146.245 189.48 145.46L201.851 138.317C203.212 137.531 203.108 136.185 201.619 135.326ZM191.915 126.866C193.969 125.68 197.44 125.77 199.686 127.067C201.933 128.364 202.088 130.368 200.034 131.553L197.56 132.982L189.441 128.294L191.915 126.866ZM186.773 143.897L170.535 134.522L182.907 127.379L199.145 136.754L186.773 143.897ZM182.366 137.067C183.854 137.926 186.186 137.986 187.547 137.201C188.907 136.415 188.803 135.069 187.315 134.21C185.826 133.35 183.495 133.29 182.134 134.076C180.773 134.861 180.877 136.207 182.366 137.067Z" fill="#00DFFD"/>
<g filter="url(#filter0_f_210_119)">
<path d="M201.619 135.326L200.266 134.544L202.741 133.116C206.155 131.144 205.896 127.794 202.161 125.638C198.426 123.482 192.624 123.332 189.209 125.303L186.735 126.732L185.382 125.951C183.893 125.091 181.562 125.031 180.201 125.817L167.829 132.96C166.468 133.745 166.573 135.091 168.061 135.951L184.299 145.326C185.787 146.185 188.119 146.245 189.48 145.46L201.851 138.317C203.212 137.531 203.108 136.185 201.619 135.326ZM191.915 126.866C193.969 125.68 197.44 125.77 199.686 127.067C201.933 128.364 202.088 130.368 200.034 131.553L197.56 132.982L189.441 128.294L191.915 126.866ZM186.773 143.897L170.535 134.522L182.907 127.379L199.145 136.754L186.773 143.897ZM182.366 137.067C183.854 137.926 186.186 137.986 187.547 137.201C188.907 136.415 188.803 135.069 187.315 134.21C185.826 133.35 183.495 133.29 182.134 134.076C180.773 134.861 180.877 136.207 182.366 137.067Z" fill="#00DFFD"/>
</g>
<g filter="url(#filter1_d_210_119)">
<path fill-rule="evenodd" clip-rule="evenodd" d="M122.755 76.396C118.544 71.6026 110.435 69.6751 104.643 72.0909C101.392 73.4467 99.5616 75.8823 99.3255 78.6061L99.0674 79.7822L99.327 79.844C99.4816 81.6096 100.284 83.4431 101.778 85.1443C105.989 89.9377 114.098 91.8652 119.89 89.4494C121.946 88.592 123.434 87.3028 124.31 85.7821L124.612 85.8539L124.938 84.3682L124.928 84.366C125.699 81.8721 125.026 78.9812 122.755 76.396Z" fill="url(#paint0_radial_210_119)"/>
<ellipse rx="11.4584" ry="11.4584" transform="matrix(-0.665346 -0.757456 0.91534 -0.381743 111.778 82.9986)" fill="url(#paint1_linear_210_119)"/>
<g style="mix-blend-mode:overlay">
<ellipse rx="9.45898" ry="9.45898" transform="matrix(-0.665346 -0.757456 0.91534 -0.381743 111.815 83.0029)" fill="url(#paint2_linear_210_119)"/>
</g>
</g>
<g filter="url(#filter2_d_210_119)">
<path fill-rule="evenodd" clip-rule="evenodd" d="M92.0867 53.0128C85.0608 48.9587 74.721 50.288 68.9922 55.9818C65.7769 59.1774 64.6973 63.0686 65.611 66.5847L65.8226 68.175L66.1537 68.1324C67.1062 70.2698 68.8471 72.1932 71.3405 73.632C78.3664 77.6861 88.7062 76.3569 94.435 70.663C96.4682 68.6423 97.6473 66.3435 98.0086 64.0372L98.3937 63.9877L98.1265 61.9788L98.1145 61.9804C97.9274 58.5053 95.876 55.1993 92.0867 53.0128Z" fill="url(#paint3_radial_210_119)"/>
<ellipse rx="14.6562" ry="14.6562" transform="matrix(-0.867991 -0.500854 0.707759 -0.70343 82.1146 66.3356)" fill="url(#paint4_linear_210_119)"/>
<g style="mix-blend-mode:overlay">
<circle r="12.0988" transform="matrix(-0.867991 -0.500854 0.707759 -0.70343 82.1598 66.3237)" fill="url(#paint5_linear_210_119)"/>
</g>
</g>
<g filter="url(#filter3_d_210_119)">
<path fill-rule="evenodd" clip-rule="evenodd" d="M59.7622 61.1496C66.4861 53.9551 67.46 41.478 61.9375 33.2814C58.8381 28.6812 54.3512 26.4069 49.8217 26.5687L47.8239 26.4052L47.7927 26.8047C44.9396 27.369 42.1498 28.9138 39.7636 31.4671C33.0398 38.6617 32.0658 51.1387 37.5883 59.3353C39.5482 62.2442 42.0629 64.223 44.7923 65.244L44.756 65.7088L47.2797 65.9154L47.2809 65.901C51.5774 66.5812 56.1358 65.0299 59.7622 61.1496Z" fill="url(#paint6_radial_210_119)"/>
<ellipse rx="17.863" ry="17.863" transform="matrix(0.681556 -0.72927 0.559779 0.83084 45.9772 45.9987)" fill="url(#paint7_linear_210_119)"/>
<g style="mix-blend-mode:overlay">
<ellipse rx="14.746" ry="14.746" transform="matrix(0.681556 -0.72927 0.559779 0.83084 45.9805 46.0549)" fill="url(#paint8_linear_210_119)"/>
</g>
</g>
<circle r="4" transform="matrix(0.866025 0.5 -0.866025 0.5 117.546 114.388)" fill="#6DA2F2"/>
<circle r="4" transform="matrix(0.866025 0.5 -0.866025 0.5 129.671 121.388)" fill="#00DFFD"/>
<g filter="url(#filter4_f_210_119)">
<circle r="6" transform="matrix(0.866025 0.5 -0.866025 0.5 129.671 121.388)" fill="#00DFFD"/>
</g>
<circle r="4" transform="matrix(0.866025 0.5 -0.866025 0.5 105.422 107.388)" fill="#00DFFD"/>
<g filter="url(#filter5_f_210_119)">
<circle r="6" transform="matrix(0.866025 0.5 -0.866025 0.5 105.422 107.388)" fill="#00DFFD"/>
</g>
<circle r="4" transform="matrix(0.866025 0.5 -0.866025 0.5 141.795 128.388)" fill="#6DA2F2"/>
<g filter="url(#filter6_f_210_119)">
<path d="M158.712 97.2177L139.656 105.388L147.787 90.0946L158.712 97.2177Z" fill="#00DFFD"/>
</g>
<path d="M156.244 98.1705L140.999 104.707L147.504 92.4721L156.244 98.1705Z" fill="#00DFFD"/>
<path d="M147.746 86.7656L147.075 86.3787L147.574 86.0955L148.24 86.48C148.407 86.576 148.584 86.6354 148.773 86.6582C148.963 86.6802 149.16 86.6659 149.363 86.6155C149.567 86.5658 149.773 86.4816 149.978 86.3628L150.128 86.2761C150.286 86.185 150.408 86.0951 150.494 86.0063C150.582 85.9185 150.634 85.8322 150.651 85.7476C150.668 85.6629 150.649 85.5815 150.596 85.5034C150.544 85.4245 150.456 85.3496 150.334 85.2788L149.644 84.8809L150.141 84.594L150.83 84.9919C151.036 85.1108 151.189 85.2397 151.289 85.3789C151.392 85.5181 151.441 85.6613 151.437 85.8086C151.433 85.9559 151.375 86.1012 151.262 86.2444C151.152 86.3876 150.987 86.5227 150.767 86.6497L150.621 86.7339C150.403 86.86 150.169 86.9552 149.919 87.0195C149.671 87.0846 149.419 87.1184 149.164 87.1208C148.912 87.1233 148.664 87.0948 148.42 87.0354C148.179 86.976 147.954 86.8861 147.746 86.7656ZM150.513 84.8088L147.435 86.5862L146.801 86.22L149.879 84.4426L150.513 84.8088ZM153.043 89.2529L152.549 89.5386L150.91 88.5925L151.405 88.3069L153.043 89.2529ZM154.196 86.9348L151.117 88.7122L150.483 88.3459L153.561 86.5686L154.196 86.9348ZM154.16 88.3618L153.678 88.6401L152.253 87.8174L152.735 87.5391L154.16 88.3618ZM155.625 87.76L155.128 88.0469L153.492 87.1021L153.988 86.8152L155.625 87.76ZM156.081 90.3108L155.296 89.8579L155.791 89.5723L156.575 90.0251C156.697 90.0951 156.815 90.1407 156.931 90.1619C157.048 90.1822 157.16 90.1818 157.267 90.1606C157.374 90.1395 157.473 90.1029 157.563 90.0508C157.654 89.9979 157.722 89.9385 157.766 89.8726C157.81 89.8066 157.817 89.7379 157.789 89.6663C157.761 89.5946 157.686 89.5238 157.565 89.4539L157 89.1279L154.419 90.6184L153.785 90.2522L156.863 88.4749L158.062 89.167C158.303 89.3062 158.466 89.4506 158.55 89.6003C158.638 89.7501 158.651 89.8953 158.59 90.0361C158.53 90.1769 158.402 90.3039 158.206 90.417C158.007 90.5317 157.789 90.6046 157.552 90.6355C157.315 90.6664 157.071 90.6546 156.819 90.6001C156.568 90.5464 156.322 90.45 156.081 90.3108ZM161.581 92.8933L161.435 92.9775C161.201 93.1126 160.96 93.2156 160.71 93.2864C160.461 93.3572 160.213 93.3971 159.966 93.406C159.721 93.4141 159.483 93.3918 159.253 93.3389C159.025 93.2868 158.814 93.2046 158.619 93.0923C158.426 92.9808 158.284 92.8587 158.192 92.7261C158.102 92.5942 158.063 92.4571 158.076 92.3147C158.09 92.1715 158.158 92.0274 158.279 91.8826C158.401 91.7385 158.58 91.599 158.814 91.4639L158.96 91.3796C159.195 91.2437 159.437 91.1408 159.685 91.0708C159.934 91 160.182 90.9601 160.429 90.9512C160.677 90.943 160.915 90.965 161.144 91.0171C161.373 91.07 161.585 91.1522 161.778 91.2637C161.972 91.376 162.115 91.498 162.205 91.6299C162.297 91.7625 162.335 91.9001 162.319 92.0425C162.305 92.1857 162.237 92.3293 162.114 92.4734C161.994 92.6174 161.817 92.7574 161.581 92.8933ZM160.795 92.6077L160.945 92.521C161.108 92.4266 161.237 92.335 161.332 92.2463C161.426 92.1576 161.487 92.0722 161.514 91.99C161.54 91.9078 161.533 91.8305 161.493 91.7581C161.453 91.6848 161.38 91.6173 161.273 91.5554C161.166 91.4936 161.049 91.4513 160.922 91.4285C160.798 91.4057 160.664 91.402 160.522 91.4175C160.381 91.4338 160.234 91.4692 160.08 91.5237C159.927 91.5782 159.768 91.6527 159.604 91.7471L159.454 91.8337C159.292 91.9273 159.163 92.0189 159.067 92.1084C158.973 92.1971 158.912 92.283 158.883 92.366C158.857 92.4482 158.863 92.5259 158.902 92.5991C158.942 92.6724 159.015 92.7399 159.122 92.8018C159.229 92.8636 159.346 92.9059 159.473 92.9287C159.6 92.9515 159.734 92.9548 159.875 92.9385C160.017 92.9214 160.165 92.8856 160.319 92.8311C160.474 92.7757 160.633 92.7013 160.795 92.6077ZM163.701 95.0474C163.756 95.0156 163.797 94.9823 163.824 94.9473C163.853 94.9123 163.865 94.8716 163.858 94.8252C163.852 94.778 163.828 94.721 163.786 94.6543C163.743 94.5876 163.679 94.5066 163.593 94.4114C163.499 94.3048 163.417 94.199 163.348 94.094C163.28 93.9898 163.236 93.8885 163.215 93.79C163.197 93.6916 163.21 93.5976 163.255 93.5081C163.302 93.4194 163.391 93.3368 163.524 93.2603C163.652 93.1862 163.796 93.1353 163.957 93.1077C164.119 93.0792 164.288 93.0727 164.464 93.0881C164.642 93.1028 164.82 93.1382 164.999 93.1943C165.18 93.2513 165.353 93.3278 165.519 93.4238C165.746 93.5549 165.904 93.6928 165.991 93.8376C166.078 93.9825 166.097 94.1229 166.048 94.2588C166 94.3955 165.885 94.5168 165.701 94.6226L165.071 94.2588C165.161 94.2067 165.221 94.1501 165.251 94.0891C165.283 94.0281 165.281 93.9642 165.245 93.8975C165.209 93.8315 165.135 93.7656 165.02 93.6997C164.911 93.6362 164.802 93.5931 164.695 93.5703C164.589 93.5467 164.49 93.5406 164.397 93.552C164.305 93.5626 164.225 93.5878 164.156 93.6277C164.104 93.6578 164.069 93.6924 164.052 93.7314C164.037 93.7713 164.037 93.8169 164.052 93.8682C164.068 93.9194 164.097 93.9764 164.141 94.0391C164.185 94.1017 164.241 94.1709 164.31 94.2466C164.427 94.3727 164.517 94.4907 164.581 94.6006C164.646 94.7113 164.681 94.8142 164.689 94.9094C164.696 95.0046 164.671 95.0938 164.615 95.1768C164.558 95.2598 164.467 95.3379 164.34 95.4111C164.206 95.4884 164.06 95.5426 163.902 95.5735C163.744 95.6044 163.579 95.6125 163.407 95.5979C163.235 95.5833 163.062 95.5474 162.887 95.4905C162.712 95.4335 162.54 95.3562 162.371 95.2585C162.219 95.1707 162.089 95.0726 161.98 94.9644C161.873 94.8553 161.8 94.7422 161.76 94.625C161.722 94.5086 161.731 94.3931 161.786 94.2783C161.841 94.1636 161.955 94.0562 162.128 93.9561L162.764 94.3235C162.669 94.3788 162.602 94.4342 162.566 94.4895C162.529 94.5448 162.517 94.5998 162.53 94.6543C162.544 94.7096 162.579 94.7642 162.636 94.8179C162.693 94.8724 162.767 94.9257 162.858 94.9778C162.967 95.0413 163.073 95.0844 163.175 95.1072C163.278 95.1308 163.373 95.1365 163.462 95.1243C163.552 95.1129 163.632 95.0872 163.701 95.0474ZM168.58 95.2397L165.502 97.0171L164.87 96.6521L167.948 94.8748L168.58 95.2397ZM171.353 96.8408L168.275 98.6182L167.643 98.2532L170.721 96.4758L171.353 96.8408ZM172.301 97.3877L171.804 97.6746L169.292 96.2244L169.789 95.9375L172.301 97.3877Z" fill="#00DFFD"/>
<path fill-rule="evenodd" clip-rule="evenodd" d="M266.805 32.8881C264.892 31.7835 261.79 31.7835 259.876 32.8881L256.046 35.0994L247.02 29.8881C245.107 28.7835 242.005 28.7835 240.092 29.8881L234.03 33.3881L286.857 63.8881L292.919 60.3881C294.833 59.2835 294.833 57.4926 292.919 56.3881L279.429 48.5994L283.259 46.3881C285.172 45.2835 285.172 43.4927 283.259 42.3881L266.805 32.8881Z" fill="#00DFFD"/>
<circle r="3" transform="matrix(0.866025 0.5 -0.866025 0.5 246.03 34.3882)" fill="#154DA2"/>
<circle r="3" transform="matrix(0.866025 0.5 -0.866025 0.5 284.226 56.3882)" fill="#154DA2"/>
<defs>
<filter id="filter0_f_210_119" x="162.873" y="119.917" width="46.2682" height="30.0942" filterUnits="userSpaceOnUse" color-interpolation-filters="sRGB">
<feFlood flood-opacity="0" result="BackgroundImageFix"/>
<feBlend mode="normal" in="SourceGraphic" in2="BackgroundImageFix" result="shape"/>
<feGaussianBlur stdDeviation="2" result="effect1_foregroundBlur_210_119"/>
</filter>
<filter id="filter1_d_210_119" x="68.8103" y="45.0488" width="86.4237" height="81.6711" filterUnits="userSpaceOnUse" color-interpolation-filters="sRGB">
<feFlood flood-opacity="0" result="BackgroundImageFix"/>
<feColorMatrix in="SourceAlpha" type="matrix" values="0 0 0 0 0 0 0 0 0 0 0 0 0 0 0 0 0 0 127 0" result="hardAlpha"/>
<feOffset dy="4"/>
<feGaussianBlur stdDeviation="15"/>
<feComposite in2="hardAlpha" operator="out"/>
<feColorMatrix type="matrix" values="0 0 0 0 0 0 0 0 0 0 0 0 0 0 0 0 0 0 0.25 0"/>
<feBlend mode="normal" in2="BackgroundImageFix" result="effect1_dropShadow_210_119"/>
<feBlend mode="normal" in="SourceGraphic" in2="effect1_dropShadow_210_119" result="shape"/>
</filter>
<filter id="filter2_d_210_119" x="35.2986" y="24.6655" width="93.231" height="88.3269" filterUnits="userSpaceOnUse" color-interpolation-filters="sRGB">
<feFlood flood-opacity="0" result="BackgroundImageFix"/>
<feColorMatrix in="SourceAlpha" type="matrix" values="0 0 0 0 0 0 0 0 0 0 0 0 0 0 0 0 0 0 127 0" result="hardAlpha"/>
<feOffset dy="4"/>
<feGaussianBlur stdDeviation="15"/>
<feComposite in2="hardAlpha" operator="out"/>
<feColorMatrix type="matrix" values="0 0 0 0 0 0 0 0 0 0 0 0 0 0 0 0 0 0 0.25 0"/>
<feBlend mode="normal" in2="BackgroundImageFix" result="effect1_dropShadow_210_119"/>
<feBlend mode="normal" in="SourceGraphic" in2="effect1_dropShadow_210_119" result="shape"/>
</filter>
<filter id="filter3_d_210_119" x="0.222172" y="0.250977" width="95.2958" height="99.8052" filterUnits="userSpaceOnUse" color-interpolation-filters="sRGB">
<feFlood flood-opacity="0" result="BackgroundImageFix"/>
<feColorMatrix in="SourceAlpha" type="matrix" values="0 0 0 0 0 0 0 0 0 0 0 0 0 0 0 0 0 0 127 0" result="hardAlpha"/>
<feOffset dy="4"/>
<feGaussianBlur stdDeviation="15"/>
<feComposite in2="hardAlpha" operator="out"/>
<feColorMatrix type="matrix" values="0 0 0 0 0 0 0 0 0 0 0 0 0 0 0 0 0 0 0.25 0"/>
<feBlend mode="normal" in2="BackgroundImageFix" result="effect1_dropShadow_210_119"/>
<feBlend mode="normal" in="SourceGraphic" in2="effect1_dropShadow_210_119" result="shape"/>
</filter>
<filter id="filter4_f_210_119" x="112.322" y="107.146" width="34.6969" height="28.4854" filterUnits="userSpaceOnUse" color-interpolation-filters="sRGB">
<feFlood flood-opacity="0" result="BackgroundImageFix"/>
<feBlend mode="normal" in="SourceGraphic" in2="BackgroundImageFix" result="shape"/>
<feGaussianBlur stdDeviation="5" result="effect1_foregroundBlur_210_119"/>
</filter>
<filter id="filter5_f_210_119" x="88.0735" y="93.1455" width="34.6969" height="28.4854" filterUnits="userSpaceOnUse" color-interpolation-filters="sRGB">
<feFlood flood-opacity="0" result="BackgroundImageFix"/>
<feBlend mode="normal" in="SourceGraphic" in2="BackgroundImageFix" result="shape"/>
<feGaussianBlur stdDeviation="5" result="effect1_foregroundBlur_210_119"/>
</filter>
<filter id="filter6_f_210_119" x="129.656" y="80.0945" width="39.0566" height="35.2932" filterUnits="userSpaceOnUse" color-interpolation-filters="sRGB">
<feFlood flood-opacity="0" result="BackgroundImageFix"/>
<feBlend mode="normal" in="SourceGraphic" in2="BackgroundImageFix" result="shape"/>
<feGaussianBlur stdDeviation="5" result="effect1_foregroundBlur_210_119"/>
</filter>
<radialGradient id="paint0_radial_210_119" cx="0" cy="0" r="1" gradientUnits="userSpaceOnUse" gradientTransform="translate(103.248 108.132) rotate(-65.4611) scale(37.5752 56.4622)">
<stop stop-color="#00DFFD"/>
<stop offset="0.501371" stop-color="#00DFFD"/>
<stop offset="1" stop-color="#00FFFF" stop-opacity="0.52"/>
</radialGradient>
<linearGradient id="paint1_linear_210_119" x1="20.4287" y1="10.1443" x2="3.72265" y2="15.0213" gradientUnits="userSpaceOnUse">
<stop stop-color="#7ADFFF"/>
<stop offset="1" stop-color="#508EEC"/>
</linearGradient>
<linearGradient id="paint2_linear_210_119" x1="16.864" y1="8.37416" x2="3.07307" y2="12.4002" gradientUnits="userSpaceOnUse">
<stop stop-color="#7ADFFF"/>
<stop offset="1" stop-color="#508EEC"/>
</linearGradient>
<radialGradient id="paint3_radial_210_119" cx="0" cy="0" r="1" gradientUnits="userSpaceOnUse" gradientTransform="translate(83.1057 101.71) rotate(-86.1719) scale(50.0685 70.6227)">
<stop stop-color="#00DFFD"/>
<stop offset="0.501371" stop-color="#00DFFD"/>
<stop offset="1" stop-color="#00FFFF" stop-opacity="0.52"/>
</radialGradient>
<linearGradient id="paint4_linear_210_119" x1="26.1299" y1="12.9753" x2="4.76155" y2="19.2135" gradientUnits="userSpaceOnUse">
<stop stop-color="#7ADFFF"/>
<stop offset="1" stop-color="#508EEC"/>
</linearGradient>
<linearGradient id="paint5_linear_210_119" x1="21.5704" y1="10.7112" x2="3.93069" y2="15.8608" gradientUnits="userSpaceOnUse">
<stop stop-color="#7ADFFF"/>
<stop offset="1" stop-color="#508EEC"/>
</linearGradient>
<radialGradient id="paint6_radial_210_119" cx="0" cy="0" r="1" gradientUnits="userSpaceOnUse" gradientTransform="translate(2.47116 38.0027) rotate(15.6311) scale(62.5629 84.7779)">
<stop stop-color="#00DFFD"/>
<stop offset="0.501371" stop-color="#00DFFD"/>
<stop offset="1" stop-color="#00FFFF" stop-opacity="0.52"/>
</radialGradient>
<linearGradient id="paint7_linear_210_119" x1="31.8471" y1="15.8143" x2="5.80338" y2="23.4174" gradientUnits="userSpaceOnUse">
<stop stop-color="#7ADFFF"/>
<stop offset="1" stop-color="#508EEC"/>
</linearGradient>
<linearGradient id="paint8_linear_210_119" x1="26.29" y1="13.0548" x2="4.79072" y2="19.3312" gradientUnits="userSpaceOnUse">
<stop stop-color="#7ADFFF"/>
<stop offset="1" stop-color="#508EEC"/>
</linearGradient>
</defs>
</svg>
