<?xml version="1.0" standalone="no"?>
<!DOCTYPE svg PUBLIC "-//W3C//DTD SVG 20010904//EN"
 "http://www.w3.org/TR/2001/REC-SVG-20010904/DTD/svg10.dtd">
<svg version="1.0" xmlns="http://www.w3.org/2000/svg"
 width="1152.000000pt" height="700.000000pt" viewBox="0 0 1152.000000 700.000000"
 preserveAspectRatio="none">

<g transform="translate(0.000000,700.000000) scale(0.100000,-0.100000)"
fill="#0036CC" stroke="none">
<path d="M5735 4326 l-260 -82 -210 -161 -210 -161 -123 -270 -122 -271 0
-375 0 -376 225 0 225 0 0 256 c0 200 3 255 13 252 9 -4 13 -89 15 -371 l2
-367 340 0 340 0 2 367 c3 341 4 368 21 371 16 3 17 -20 17 -367 l0 -371 345
0 345 0 0 370 c0 322 2 370 15 370 13 0 15 -35 15 -255 l0 -255 230 0 230 0 0
374 0 373 -133 272 -133 272 -215 163 -215 164 -239 77 c-132 43 -244 79 -250
81 -5 1 -127 -34 -270 -80z m-117 -473 c41 -45 7 -113 -55 -113 -40 0 -73 30
-73 66 0 78 75 106 128 47z m850 0 c41 -45 7 -113 -55 -113 -40 0 -73 30 -73
66 0 78 75 106 128 47z m-139 -385 c24 -62 46 -119 48 -125 4 -10 -76 -13
-381 -13 -378 0 -386 0 -386 20 0 19 8 20 292 22 l292 3 41 102 c22 57 42 103
45 103 3 0 25 -51 49 -112z"/>
</g>
</svg>
