<svg id="visual" viewBox="0 0 900 600" width="900" height="600" xmlns="http://www.w3.org/2000/svg" xmlns:xlink="http://www.w3.org/1999/xlink" version="1.1"><rect x="0" y="0" width="900" height="600" fill="#0053CF"></rect><path d="M0 431L129 350L257 443L386 376L514 379L643 382L771 439L900 376L900 601L771 601L643 601L514 601L386 601L257 601L129 601L0 601Z" fill="#8cbaff"></path><path d="M0 399L129 457L257 408L386 440L514 396L643 411L771 415L900 395L900 601L771 601L643 601L514 601L386 601L257 601L129 601L0 601Z" fill="#6da1f5"></path><path d="M0 477L129 486L257 442L386 452L514 500L643 439L771 509L900 469L900 601L771 601L643 601L514 601L386 601L257 601L129 601L0 601Z" fill="#4f87ea"></path><path d="M0 535L129 513L257 541L386 512L514 528L643 483L771 519L900 526L900 601L771 601L643 601L514 601L386 601L257 601L129 601L0 601Z" fill="#306ddd"></path><path d="M0 555L129 565L257 567L386 541L514 532L643 566L771 542L900 555L900 601L771 601L643 601L514 601L386 601L257 601L129 601L0 601Z" fill="#0053cf"></path></svg>