<svg width="216" height="198" viewBox="0 0 216 198" fill="none" xmlns="http://www.w3.org/2000/svg">
<path d="M138.026 196L131.119 184H144.439H156.279H168.119L162.199 196L156.279 184L150.359 196L144.439 184L138.026 196Z" fill="#06285D"/>
<path d="M131.119 184L138.026 196L144.439 184L150.359 196L156.279 184L162.199 196L168.119 184H131.119Z" stroke="black"/>
<path d="M56.0257 195L49.1191 183H62.4391H74.2791H86.1191L80.1991 195L74.2791 183L68.3591 195L62.4391 183L56.0257 195Z" fill="#06285D"/>
<path d="M49.1191 183L56.0257 195L62.4391 183L68.3591 195L74.2791 183L80.1991 195L86.1191 183H49.1191Z" stroke="black"/>
<circle cx="108.119" cy="90.0001" r="80" fill="#06285D"/>
<path fill-rule="evenodd" clip-rule="evenodd" d="M42.1191 151L48.3978 180.039H87.3978L88.7392 172.403C70.9932 169.248 54.9768 161.68 42.1191 151Z" fill="#06285D"/>
<path fill-rule="evenodd" clip-rule="evenodd" d="M24.8212 73.8784L3.25879 94.3171L23.5008 127.653L30.7238 124.836C24.2097 108.03 22.3664 90.4116 24.8212 73.8784Z" fill="#06285D"/>
<path fill-rule="evenodd" clip-rule="evenodd" d="M190.316 74.0002L211.879 94.4389L191.637 127.774L184.414 124.958C190.928 108.152 192.771 90.5334 190.316 74.0002Z" fill="#06285D"/>
<path fill-rule="evenodd" clip-rule="evenodd" d="M174.739 152L168.461 181.039H129.461L128.119 173.403C145.865 170.248 161.881 162.68 174.739 152Z" fill="#06285D"/>
<path fill-rule="evenodd" clip-rule="evenodd" d="M151.819 1.24643C150.427 7.78132 150.964 14.45 153.142 20.555L143.035 13.6849L148.725 0.455044L151.819 1.24643Z" fill="#06285D"/>
<path fill-rule="evenodd" clip-rule="evenodd" d="M52.6661 7.89956C57.9999 11.9234 64.27 14.2568 70.7233 14.8643L60.2245 21.1184L50.6408 10.3689L52.6661 7.89956Z" fill="#06285D"/>
<ellipse cx="74.4048" cy="40.4909" rx="7.28571" ry="7.49068" fill="white"/>
<ellipse cx="128.405" cy="40.4909" rx="7.28571" ry="7.49068" fill="white"/>
<path d="M99.6191 94L105.619 100L111.119 94H99.6191Z" fill="white" stroke="white"/>
<path d="M94.0512 139.259L98.3788 108.248L106.697 104.059L113.151 110.31L108.824 141.321L100.705 146.997L94.0512 139.259Z" stroke="white"/>
<path d="M96.1191 139V106.5L105.619 101L114.619 106.5V139L105.619 146L96.1191 139Z" fill="white" stroke="white"/>
<path d="M99.6191 94L83.6191 91.5" stroke="white"/>
<path d="M111.119 94L127.119 91.5" stroke="white"/>
<path d="M121.235 58.2883L131.119 71.3077L118.503 74.4041L121.235 58.2883Z" fill="white"/>
<path d="M79.1191 70.5C101.725 76.9054 113.785 77.009 134.119 70.5" stroke="white" stroke-width="2"/>
</svg>
